<svg width="24" height="24" viewBox="0 0 24 24" fill="none" xmlns="http://www.w3.org/2000/svg">
<path d="M15.2812 8.57031C15.5156 8.33594 15.9453 8.33594 16.1797 8.57031C16.4141 8.80469 16.4141 9.23438 16.1797 9.46875L11.1797 14.4688C11.0625 14.5859 10.9062 14.625 10.75 14.625C10.5547 14.625 10.3984 14.5859 10.2812 14.4688L7.78125 11.9688C7.54688 11.7344 7.54688 11.3047 7.78125 11.0703C8.01562 10.8359 8.44531 10.8359 8.67969 11.0703L10.75 13.1406L15.2812 8.57031ZM12 2.125C17.1562 2.125 21.375 6.34375 21.375 11.5C21.375 16.6953 17.1562 20.875 12 20.875C6.80469 20.875 2.625 16.6953 2.625 11.5C2.625 6.34375 6.80469 2.125 12 2.125ZM12 19.625C16.4531 19.625 20.125 15.9922 20.125 11.5C20.125 7.04688 16.4531 3.375 12 3.375C7.50781 3.375 3.875 7.04688 3.875 11.5C3.875 15.9922 7.50781 19.625 12 19.625Z" fill="#00F1C7"/>
</svg>
