<svg width="24" height="24" viewBox="0 0 24 24" fill="none" xmlns="http://www.w3.org/2000/svg">
<path d="M9.15625 8.6875C8.92773 8.6875 8.75 8.50977 8.75 8.28125C8.75 8.07812 8.92773 7.875 9.15625 7.875H10.7812C10.9844 7.875 11.1875 8.07812 11.1875 8.28125C11.1875 8.50977 10.9844 8.6875 10.7812 8.6875H9.15625ZM9.15625 7.0625C8.92773 7.0625 8.75 6.88477 8.75 6.65625C8.75 6.45312 8.92773 6.25 9.15625 6.25H10.7812C10.9844 6.25 11.1875 6.45312 11.1875 6.65625C11.1875 6.88477 10.9844 7.0625 10.7812 7.0625H9.15625ZM16.3926 7.82422C16.6973 8.12891 16.875 8.53516 16.875 8.9668V16C16.875 16.9141 16.1387 17.625 15.25 17.625H8.75C7.83594 17.625 7.125 16.9141 7.125 16V6.25C7.125 5.36133 7.83594 4.625 8.75 4.625H12.5332C12.9648 4.625 13.3711 4.80273 13.6758 5.10742L16.3926 7.82422ZM12.8125 5.51367V8.28125C12.8125 8.50977 12.9902 8.6875 13.2188 8.6875H15.9863C15.9609 8.58594 15.9102 8.48438 15.8086 8.38281L13.1172 5.69141C13.0156 5.58984 12.9141 5.53906 12.8125 5.51367ZM16.0625 16V9.5H13.2188C12.5332 9.5 12 8.9668 12 8.28125V5.4375H8.75C8.29297 5.4375 7.9375 5.81836 7.9375 6.25V16C7.9375 16.457 8.29297 16.8125 8.75 16.8125H15.25C15.6816 16.8125 16.0625 16.457 16.0625 16ZM8.75 11.5312C8.75 11.0996 9.10547 10.7188 9.5625 10.7188H14.4375C14.8691 10.7188 15.25 11.0996 15.25 11.5312V13.1562C15.25 13.6133 14.8691 13.9688 14.4375 13.9688H9.5625C9.10547 13.9688 8.75 13.6133 8.75 13.1562V11.5312ZM14.4375 13.1562V11.5312H9.5625V13.1562H14.4375ZM14.8438 15.1875C15.0469 15.1875 15.25 15.3906 15.25 15.5938C15.25 15.8223 15.0469 16 14.8438 16H13.2188C12.9902 16 12.8125 15.8223 12.8125 15.5938C12.8125 15.3906 12.9902 15.1875 13.2188 15.1875H14.8438Z" fill="white"/>
</svg>
