<svg width="29" height="31" viewBox="0 0 29 31" fill="none" xmlns="http://www.w3.org/2000/svg">
<path d="M12 30.5C10.5938 30.5 9.5 29.4062 9.5 28H14.5C14.5 29.4062 13.3672 30.5 12 30.5ZM20.3984 24.6797C20.6328 24.9141 20.75 25.2266 20.75 25.5C20.7109 26.1641 20.2422 26.75 19.4609 26.75H4.5C3.75781 26.75 3.25 26.1641 3.25 25.5C3.25 25.2266 3.32812 24.9141 3.5625 24.6797C4.30469 23.8594 5.75 22.6484 5.75 18.625C5.75 15.6172 7.85938 13.1953 10.75 12.5703V11.75C10.75 11.0859 11.2969 10.5 12 10.5C12.6641 10.5 13.25 11.0859 13.25 11.75V12.5703C16.1016 13.1953 18.2109 15.6172 18.2109 18.625C18.2109 22.6484 19.6562 23.8594 20.3984 24.6797Z" fill="white"/>
<circle cx="21" cy="8" r="8" fill="#00F1C7"/>
<path d="M20.3008 7.90332C20.3008 8.3265 20.2699 8.74154 20.208 9.14844C20.1494 9.55534 20.0452 9.9362 19.8955 10.291C19.749 10.6458 19.5456 10.96 19.2852 11.2334C19.028 11.5036 18.7025 11.7152 18.3086 11.8682C17.9147 12.0212 17.4395 12.0977 16.8828 12.0977C16.7428 12.0977 16.5801 12.0895 16.3945 12.0732C16.2122 12.0602 16.0625 12.0407 15.9453 12.0146V11.0576C16.069 11.0934 16.2074 11.1227 16.3604 11.1455C16.5166 11.165 16.6712 11.1748 16.8242 11.1748C17.4264 11.1748 17.8952 11.0625 18.2305 10.8379C18.569 10.6133 18.8083 10.304 18.9482 9.91016C19.0915 9.51628 19.1729 9.06868 19.1924 8.56738H19.1338C19.0394 8.72363 18.9206 8.86686 18.7773 8.99707C18.6341 9.12402 18.4567 9.22656 18.2451 9.30469C18.0335 9.37956 17.7764 9.41699 17.4736 9.41699C17.0635 9.41699 16.7054 9.33073 16.3994 9.1582C16.0967 8.98568 15.8607 8.73503 15.6914 8.40625C15.5254 8.07422 15.4424 7.67546 15.4424 7.20996C15.4424 6.7054 15.5384 6.27083 15.7305 5.90625C15.9225 5.54167 16.1943 5.26172 16.5459 5.06641C16.8975 4.86784 17.3109 4.76855 17.7861 4.76855C18.1442 4.76855 18.4746 4.83366 18.7773 4.96387C19.0833 5.09082 19.3503 5.28613 19.5781 5.5498C19.806 5.81022 19.9834 6.13737 20.1104 6.53125C20.2373 6.92188 20.3008 7.37923 20.3008 7.90332ZM17.8008 5.71582C17.4395 5.71582 17.1449 5.83789 16.917 6.08203C16.6891 6.32292 16.5752 6.69401 16.5752 7.19531C16.5752 7.60221 16.6729 7.92448 16.8682 8.16211C17.0635 8.39974 17.363 8.51855 17.7666 8.51855C18.0465 8.51855 18.2874 8.46159 18.4893 8.34766C18.6943 8.23047 18.8522 8.08236 18.9629 7.90332C19.0768 7.72428 19.1338 7.54199 19.1338 7.35645C19.1338 7.16439 19.1061 6.97233 19.0508 6.78027C18.9987 6.58822 18.9173 6.41243 18.8066 6.25293C18.696 6.09342 18.556 5.96484 18.3867 5.86719C18.2207 5.76628 18.0254 5.71582 17.8008 5.71582ZM26.5234 7.90332C26.5234 8.3265 26.4925 8.74154 26.4307 9.14844C26.3721 9.55534 26.2679 9.9362 26.1182 10.291C25.9717 10.6458 25.7682 10.96 25.5078 11.2334C25.2507 11.5036 24.9251 11.7152 24.5312 11.8682C24.1374 12.0212 23.6621 12.0977 23.1055 12.0977C22.9655 12.0977 22.8027 12.0895 22.6172 12.0732C22.4349 12.0602 22.2852 12.0407 22.168 12.0146V11.0576C22.2917 11.0934 22.43 11.1227 22.583 11.1455C22.7393 11.165 22.8939 11.1748 23.0469 11.1748C23.6491 11.1748 24.1178 11.0625 24.4531 10.8379C24.7917 10.6133 25.0309 10.304 25.1709 9.91016C25.3141 9.51628 25.3955 9.06868 25.415 8.56738H25.3564C25.262 8.72363 25.1432 8.86686 25 8.99707C24.8568 9.12402 24.6794 9.22656 24.4678 9.30469C24.2562 9.37956 23.999 9.41699 23.6963 9.41699C23.2861 9.41699 22.9281 9.33073 22.6221 9.1582C22.3193 8.98568 22.0833 8.73503 21.9141 8.40625C21.748 8.07422 21.665 7.67546 21.665 7.20996C21.665 6.7054 21.7611 6.27083 21.9531 5.90625C22.1452 5.54167 22.417 5.26172 22.7686 5.06641C23.1201 4.86784 23.5335 4.76855 24.0088 4.76855C24.3669 4.76855 24.6973 4.83366 25 4.96387C25.306 5.09082 25.5729 5.28613 25.8008 5.5498C26.0286 5.81022 26.2061 6.13737 26.333 6.53125C26.46 6.92188 26.5234 7.37923 26.5234 7.90332ZM24.0234 5.71582C23.6621 5.71582 23.3675 5.83789 23.1396 6.08203C22.9118 6.32292 22.7979 6.69401 22.7979 7.19531C22.7979 7.60221 22.8955 7.92448 23.0908 8.16211C23.2861 8.39974 23.5856 8.51855 23.9893 8.51855C24.2692 8.51855 24.5101 8.46159 24.7119 8.34766C24.917 8.23047 25.0749 8.08236 25.1855 7.90332C25.2995 7.72428 25.3564 7.54199 25.3564 7.35645C25.3564 7.16439 25.3288 6.97233 25.2734 6.78027C25.2214 6.58822 25.14 6.41243 25.0293 6.25293C24.9186 6.09342 24.7786 5.96484 24.6094 5.86719C24.4434 5.76628 24.248 5.71582 24.0234 5.71582Z" fill="black"/>
</svg>
