<svg width="100" height="100" viewBox="0 0 100 100" fill="none" xmlns="http://www.w3.org/2000/svg">
<g filter="url(#filter0_d_1_2137)">
<circle cx="48" cy="48" r="48" fill="white"/>
</g>
<path d="M48 92C72.3005 92 92 72.3005 92 48C92 23.6995 72.3005 4 48 4C23.6995 4 4 23.6995 4 48C4 72.3005 23.6995 92 48 92Z" fill="#00F1C7"/>
<path d="M61.7056 48.4023C61.7056 43.9341 59.5568 39.9678 56.2432 37.4776V33.3006C56.0725 30.971 54.1346 26.563 48.0196 26.563C41.9046 26.563 39.9767 30.8907 39.806 33.1801V37.4576C36.4422 39.9477 34.2834 43.924 34.2834 48.4023C34.2834 49.6173 34.4541 50.7921 34.7453 51.9167C34.7854 52.1075 34.8356 52.2983 34.8859 52.4891C34.8859 52.4991 34.8859 52.5192 34.8959 52.5292C36.1711 57.0477 39.6955 60.6223 44.1939 61.9377V69.4283L55.0383 60.552C59.0146 58.1623 61.6855 53.8145 61.6855 48.8341C61.6855 48.7739 61.6754 48.7036 61.6754 48.6433C61.6754 48.563 61.6855 48.4927 61.6855 48.4124L61.7056 48.4023ZM44.455 33.401C44.5353 32.7282 44.947 30.9911 48.0296 30.9911C51.2628 30.9911 51.6243 32.8487 51.7047 33.5114V35.2485C50.5399 34.9272 49.3249 34.7565 48.0597 34.7565C46.7946 34.7565 45.6097 34.9172 44.455 35.2284V33.411V33.401ZM49.5458 54.7081L49.7768 58.0317H46.2524L46.5636 54.7182C43.6818 54.0555 41.5732 51.505 41.5732 48.4124C41.5732 44.8578 44.445 41.9861 48.0497 41.9861C51.6544 41.9861 54.476 44.8578 54.476 48.4124C54.476 51.505 52.3774 54.0454 49.5358 54.7182L49.5458 54.7081Z" fill="black"/>
<path d="M12.9467 56.8767L12.6454 55.5511L14.0011 55.2498L14.3024 56.5754L12.9467 56.8767Z" fill="black"/>
<path d="M7.87587 46.9059C7.94617 44.5962 9.75379 42.9091 12.0033 42.9693C14.313 43.0396 16.0604 44.8372 15.9901 47.1469C15.9198 49.4567 14.0619 51.1438 11.7522 51.0735C9.51277 51.0032 7.80558 49.2056 7.87587 46.8959V46.9059ZM14.6846 47.1168C14.7247 45.6808 13.5699 44.4958 11.9531 44.4456C10.4065 44.3953 9.22154 45.51 9.18138 46.9461C9.14121 48.3821 10.2559 49.5671 11.8024 49.6174C13.4192 49.6676 14.6444 48.5529 14.6846 47.1168Z" fill="black"/>
<path d="M10.8076 40.8515L11.139 39.6163L11.5307 39.7167C11.7315 39.7669 11.9022 39.8372 11.9022 39.8372V39.8172C11.9022 39.8172 11.139 39.1042 11.4805 37.8288C11.8721 36.3526 13.2881 35.7199 14.9752 36.1718C16.7025 36.6337 17.546 37.9895 17.1644 39.4155C16.8732 40.49 15.9995 40.7812 15.9995 40.7812V40.8013C15.9995 40.8013 16.1903 40.8314 16.4715 40.9017L18.7611 41.5043L18.3996 42.86L10.8177 40.8515H10.8076ZM15.9493 39.3552C16.1501 38.6121 15.7083 37.8288 14.6237 37.5376C13.5893 37.2664 12.7659 37.638 12.555 38.4414C12.3642 39.1443 12.7056 39.9477 13.9107 40.2691C14.7542 40.49 15.7083 40.259 15.9493 39.3552Z" fill="black"/>
<path d="M14.1516 34.1033L13.8604 34.766L12.8361 34.3141L13.1474 33.6212L11.6611 32.9584L12.2134 31.7031L13.6997 32.3659L14.2219 31.191L15.2462 31.6429L14.724 32.8178L16.7224 33.7116C17.566 34.0932 17.9878 33.4806 18.1484 33.1191C18.2087 32.9785 18.2288 32.8781 18.2288 32.8781L19.3535 33.3802C19.3535 33.3802 19.3133 33.5409 19.2129 33.7919C18.8916 34.5049 18.048 35.8406 16.3207 35.0673L14.1616 34.1033H14.1516Z" fill="black"/>
<path d="M13.0262 28.6014L13.7192 27.3963L14.8037 28.0189L14.1108 29.224L13.0262 28.6014ZM14.9443 29.706L15.6473 28.4909L20.5279 31.3028L19.8249 32.5179L14.9443 29.706Z" fill="black"/>
<path d="M16.6817 26.4525L17.5654 25.4282L18.0575 25.8499C18.2181 25.9905 18.3387 26.1211 18.3387 26.1211V26.101C18.1177 25.5286 18.0876 24.6147 18.66 23.9519C19.2224 23.2992 19.8852 23.1385 20.6082 23.4599V23.4398C20.3672 22.8071 20.4174 21.8933 20.9999 21.2305C21.7631 20.3468 22.7071 20.2664 23.8218 21.2305L26.5633 23.5904L25.6495 24.6549L23.1088 22.4657C22.6267 22.0439 22.1748 21.823 21.753 22.315C21.2811 22.8573 21.4116 23.5904 21.8334 24.1829C21.9639 24.3737 22.1447 24.5344 22.3455 24.7051L24.2235 26.3219L23.3096 27.3864L20.7689 25.1972C20.3069 24.8055 19.855 24.5344 19.4232 25.0365C18.9512 25.5888 19.0717 26.3219 19.5036 26.9245C19.6241 27.1052 19.8149 27.276 20.0057 27.4467L21.8836 29.0635L20.9697 30.128L16.7018 26.4525H16.6817Z" fill="black"/>
<path d="M22.7365 16.9231L23.8211 16.0595L24.5944 17.0336L23.5098 17.8973L22.7365 16.9231ZM24.1123 18.6504L25.207 17.7767L28.7117 22.1853L27.6171 23.059L24.1123 18.6504Z" fill="black"/>
<path d="M29.0417 20.9102L29.5539 16.8933C29.6041 16.4916 29.6945 16.2004 29.6945 16.2004V16.1803C29.6945 16.1803 29.5539 16.2807 29.2526 16.4715L27.2241 17.7067L26.6014 16.6824L30.6987 14.1919L31.0904 14.8446L30.5782 18.8616C30.528 19.2633 30.4276 19.5545 30.4276 19.5545V19.5746C30.4276 19.5746 30.5682 19.4641 30.8795 19.2733L33.0687 17.9477L33.6913 18.972L29.4334 21.5529L29.0417 20.9102Z" fill="black"/>
<path d="M35.8803 14.2523L36.051 14.182L36.0209 14.1118C35.7498 13.4188 35.2276 13.3586 34.6451 13.5795C33.8919 13.8707 33.3999 14.654 33.3999 14.654L32.5362 13.9109C32.5362 13.9109 33.0886 12.9468 34.3338 12.4548C35.7096 11.9125 36.8143 12.3543 37.3365 13.6799L38.6319 16.9638L37.4268 17.4358L37.2561 17.0039C37.1758 16.793 37.1356 16.6223 37.1356 16.6223H37.1155C37.1155 16.6223 37.0754 17.7169 35.8904 18.1789C34.9564 18.5505 33.8819 18.2894 33.4702 17.245C32.8174 15.5779 35.0167 14.5837 35.8703 14.2423L35.8803 14.2523ZM35.8301 17.0441C36.523 16.773 36.7239 15.839 36.4728 15.1963L36.4226 15.0758L36.1916 15.1662C35.5188 15.4273 34.4844 15.9495 34.7656 16.6725C34.9062 17.024 35.2878 17.255 35.8201 17.0441H35.8301Z" fill="black"/>
<path d="M41.8438 11.6816L41.1208 11.7921L40.95 10.6874L41.7032 10.577L41.4622 8.97019L42.8179 8.76935L43.0589 10.3761L44.3243 10.1853L44.495 11.29L43.2296 11.4808L43.561 13.6399C43.7016 14.5537 44.4448 14.5838 44.8264 14.5236C44.977 14.5035 45.0774 14.4633 45.0774 14.4633L45.2582 15.6785C45.2582 15.6785 45.0975 15.7387 44.8364 15.7789C44.0632 15.8994 42.4865 15.8994 42.2053 14.0315L41.8539 11.6917L41.8438 11.6816Z" fill="black"/>
<path d="M46.1523 9.85382L47.5582 9.87391L47.498 13.208C47.4879 13.8908 47.6586 14.3628 48.3516 14.3729C49.3658 14.393 49.9483 13.4992 49.9583 12.495L49.9985 9.91408L51.4044 9.93416L51.314 15.5679L49.9684 15.5478V14.9051C49.9784 14.6842 50.0085 14.5034 50.0085 14.5034H49.9885C49.7073 15.0859 48.9742 15.6583 48.0101 15.6382C46.805 15.6181 46.0619 14.9955 46.092 13.459L46.1523 9.83374V9.85382Z" fill="black"/>
<path d="M56.8062 10.5669L58.0815 10.9987L57.8706 11.6113C57.8004 11.8121 57.72 11.9728 57.72 11.9728H57.7401C58.182 11.551 59.0155 11.1795 59.849 11.4607C60.6624 11.7418 61.0541 12.2942 61.034 13.0875H61.0541C61.5461 12.6155 62.4098 12.3343 63.2433 12.6155C64.3479 12.9971 64.7697 13.8407 64.2977 15.2366L63.1228 18.661L61.7972 18.2091L62.8818 15.0357C63.0927 14.4332 63.1328 13.9311 62.5102 13.7202C61.8273 13.4892 61.1947 13.8809 60.813 14.4934C60.6925 14.6842 60.6022 14.9152 60.5118 15.1663L59.7084 17.5061L58.3828 17.0542L59.4674 13.8809C59.6682 13.3085 59.7385 12.7863 59.1059 12.5653C58.4129 12.3343 57.7803 12.716 57.3786 13.3386C57.2581 13.5193 57.1677 13.7604 57.0873 13.9913L56.284 16.3312L54.9584 15.8793L56.776 10.5468L56.8062 10.5669Z" fill="black"/>
<path d="M69.3877 15.9388C70.8338 16.8828 71.3259 18.6603 70.3819 20.1064C69.4379 21.5625 67.6102 21.8337 66.1741 20.8997C64.7281 19.9558 64.236 18.1883 65.18 16.7322C66.1239 15.2861 67.9516 15.0049 69.3877 15.9388ZM66.8269 19.8955C67.5901 20.3876 68.6144 20.2068 69.1868 19.3331C69.7492 18.4595 69.5082 17.4452 68.745 16.9531C67.9717 16.451 66.9474 16.6418 66.375 17.5155C65.8026 18.3992 66.0536 19.4034 66.8269 19.9055V19.8955Z" fill="black"/>
<path d="M72.7314 18.4193L73.8059 19.4336L72.2494 22.7677C72.0987 23.089 71.7974 23.5108 71.8075 23.5208L71.8276 23.5409C71.8276 23.5409 72.2493 23.2296 72.5607 23.0589L75.8144 21.3316L76.8889 22.3459L71.5464 25.0473L70.3413 23.9024L72.7314 18.4093V18.4193Z" fill="black"/>
<path d="M77.6417 23.3798L78.5355 24.4643L74.1871 28.0394L73.2934 26.9548L77.6417 23.3798ZM79.3489 21.9839L80.2326 23.0584L79.2685 23.8518L78.3848 22.7772L79.3489 21.9839Z" fill="black"/>
<path d="M81.4672 24.6644L82.2505 25.8193L77.39 29.1333C76.8779 29.4847 76.8678 29.7458 77.0787 30.0471C77.139 30.1375 77.2093 30.2178 77.2093 30.2178L76.195 30.9107C76.195 30.9107 76.0444 30.7601 75.9138 30.5593C75.482 29.9166 75.1004 29.0128 76.436 28.1089L81.4672 24.6845V24.6644Z" fill="black"/>
<path d="M81.5568 28.8919L82.2397 30.1171L77.329 32.8687L76.6461 31.6435L81.5568 28.8919ZM83.4849 27.8174L84.1678 29.0325L83.0832 29.6451L82.4003 28.43L83.4849 27.8174Z" fill="black"/>
<path d="M84.1576 33.9129C84.5995 35.0678 84.0773 35.6904 84.0773 35.6904V35.7105C84.0773 35.7105 84.2179 35.6502 84.3786 35.5799L86.6883 34.6862L87.1904 35.9917L79.8796 38.8236L79.3976 37.5884L79.8294 37.4177C80.0302 37.3373 80.1809 37.3072 80.1809 37.3072V37.2871C80.1809 37.2871 79.1064 37.1867 78.6344 35.9816C78.082 34.5556 78.8553 33.22 80.4822 32.5873C82.1492 31.9446 83.6154 32.517 84.1476 33.9029L84.1576 33.9129ZM79.8595 35.8611C80.1206 36.544 80.8638 36.9859 82.0287 36.534C82.8421 36.2226 83.4748 35.4795 83.1434 34.5958C82.8622 33.8727 82.0488 33.5012 81.0044 33.9029C80.0001 34.2845 79.5683 35.0778 79.8595 35.8511V35.8611Z" fill="black"/>
<path d="M84.178 42.1772L84.2081 42.3579H84.2885C85.0115 42.2073 85.1822 41.7052 85.0718 41.0926C84.9211 40.2992 84.2584 39.6666 84.2584 39.6666L85.1521 38.9636C85.1521 38.9636 85.9957 39.6967 86.2367 41.0123C86.5078 42.4684 85.8651 43.4626 84.4592 43.7237L80.9946 44.3664L80.7536 43.091L81.2055 43.0107C81.4264 42.9705 81.5971 42.9605 81.5971 42.9605V42.9404C81.5971 42.9404 80.5326 42.6994 80.3017 41.434C80.1209 40.4499 80.5728 39.4356 81.6775 39.2348C83.4349 38.9034 83.9972 41.2633 84.168 42.1671L84.178 42.1772ZM81.4465 41.5947C81.5771 42.3278 82.4608 42.6994 83.1336 42.5688L83.2642 42.5487L83.224 42.3077C83.0934 41.6048 82.7821 40.48 82.0089 40.6206C81.6373 40.6909 81.3461 41.0223 81.4465 41.5947Z" fill="black"/>
<path d="M86.8897 47.5687C86.9098 48.8039 86.1968 49.2056 86.1968 49.2056V49.2257C86.1968 49.2257 86.3374 49.2157 86.5182 49.2056L88.9886 49.1654L89.0087 50.5714L81.1656 50.7019L81.1455 49.3763H81.6075C81.8184 49.3663 81.969 49.3763 81.969 49.3763V49.3562C81.969 49.3562 81.0049 48.8943 80.9748 47.6089C80.9447 46.0824 82.1397 45.0883 83.8871 45.0581C85.6746 45.028 86.8596 46.0724 86.8797 47.5587L86.8897 47.5687ZM82.1799 47.9101C82.1899 48.6432 82.7322 49.3161 83.9775 49.296C84.8511 49.2859 85.7047 48.8039 85.6846 47.8599C85.6746 47.0867 85.0319 46.454 83.9172 46.4741C82.8427 46.4942 82.1598 47.0766 82.1698 47.9101H82.1799Z" fill="black"/>
<path d="M84.3385 55.4404L84.0473 56.766L82.6916 56.4647L82.9828 55.1392L84.3385 55.4404Z" fill="black"/>
<path d="M30.6442 79.4211L31.8452 80.1537L31.1126 81.3547L29.9116 80.6222L30.6442 79.4211Z" fill="black"/>
<path d="M33.7612 80.9186C33.7612 80.9186 34.0769 81.7342 34.9066 82.1125C35.2699 82.2793 35.6569 82.2558 35.7882 81.9564C36.131 81.1906 33.5951 80.1687 34.3396 78.5168C34.767 77.5644 35.8797 77.3899 36.9794 77.8927C38.1356 78.419 38.437 79.2519 38.437 79.2519L37.5358 79.9807C37.5358 79.9807 37.2665 79.3202 36.4812 78.9729C36.1449 78.8226 35.7648 78.8168 35.6168 79.1433C35.2929 79.8722 37.8265 80.904 37.0821 82.5559C36.697 83.4149 35.648 83.7589 34.4256 83.207C33.1468 82.6316 32.7682 81.554 32.7682 81.554L33.7612 80.9186Z" fill="black"/>
<path d="M39.7184 79.0964L41.0554 79.51L39.3821 84.8948L38.0452 84.4812L39.7184 79.0964ZM40.3725 76.9905L41.6997 77.4018L41.3299 78.5944L40.0027 78.183L40.3725 76.9905Z" fill="black"/>
<path d="M42.3229 80.1335L43.6626 80.2694L43.5954 80.9136C43.577 81.1258 43.5384 81.2921 43.5384 81.2921L43.558 81.2967C43.8854 80.7747 44.6216 80.224 45.4976 80.3141C46.354 80.3996 46.8683 80.8489 47.0154 81.6357L47.035 81.6402C47.4054 81.0664 48.1866 80.5881 49.0626 80.6781C50.2314 80.7949 50.8356 81.5229 50.68 82.9919L50.3166 86.5984L48.916 86.4587L49.2497 83.1134C49.3145 82.4789 49.2452 81.9783 48.589 81.9187C47.874 81.8454 47.3396 82.3708 47.1075 83.0592C47.0259 83.2774 47.0008 83.5189 46.971 83.7801L46.72 86.2373L45.3194 86.0976L45.653 82.7523C45.711 82.1472 45.6681 81.6218 45.0043 81.5501C44.2796 81.4745 43.7452 81.9999 43.5011 82.6958C43.424 82.8945 43.3943 83.1556 43.3669 83.407L43.1158 85.8642L41.7152 85.7245L42.274 80.1221L42.3229 80.1335Z" fill="black"/>
<path d="M54.7386 80.1618C56.4341 79.8751 57.9999 80.8573 58.2843 82.5626C58.5664 84.2777 57.4015 85.6979 55.718 85.977C54.0225 86.2637 52.4545 85.2913 52.1724 83.5762C51.888 81.8709 53.0552 80.4409 54.7386 80.1618ZM55.5179 84.7965C56.4094 84.6427 57.0533 83.8232 56.8801 82.7932C56.707 81.7633 55.8422 81.181 54.9507 81.3348C54.0495 81.4863 53.4131 82.3179 53.5765 83.3456C53.7474 84.3853 54.6145 84.9578 55.5157 84.8063L55.5179 84.7965Z" fill="black"/>
<path d="M58.6991 79.4841L59.95 78.9808L60.1915 79.5833C60.2703 79.7768 60.3122 79.9515 60.3122 79.9515L60.3318 79.9561C60.386 79.4119 60.7026 78.537 61.76 78.1124C62.919 77.6497 63.8188 77.9926 64.3731 79.3791L65.7157 82.7426L64.4211 83.2564L63.1925 80.1565C62.9382 79.5202 62.6008 79.1531 61.9403 79.4224C61.2459 79.7045 60.901 80.346 60.964 81.0514C60.9802 81.2923 61.0476 81.5347 61.1542 81.7863L62.1128 84.1843L60.8061 84.7056L58.7232 79.4691L58.6991 79.4841Z" fill="black"/>
<path d="M66.8227 80.5042L68.0385 79.7969L68.7459 81.0127L67.53 81.72L66.8227 80.5042Z" fill="black"/>
<defs>
<filter id="filter0_d_1_2137" x="0" y="0" width="100" height="100" filterUnits="userSpaceOnUse" color-interpolation-filters="sRGB">
<feFlood flood-opacity="0" result="BackgroundImageFix"/>
<feColorMatrix in="SourceAlpha" type="matrix" values="0 0 0 0 0 0 0 0 0 0 0 0 0 0 0 0 0 0 127 0" result="hardAlpha"/>
<feOffset dx="2" dy="2"/>
<feGaussianBlur stdDeviation="1"/>
<feComposite in2="hardAlpha" operator="out"/>
<feColorMatrix type="matrix" values="0 0 0 0 0 0 0 0 0 0 0 0 0 0 0 0 0 0 0.16 0"/>
<feBlend mode="normal" in2="BackgroundImageFix" result="effect1_dropShadow_1_2137"/>
<feBlend mode="normal" in="SourceGraphic" in2="effect1_dropShadow_1_2137" result="shape"/>
</filter>
</defs>
</svg>
