<svg width="26" height="21" viewBox="0 0 26 21" fill="none" xmlns="http://www.w3.org/2000/svg">
<path d="M7.25 5.1875C8.42188 5.1875 9.4375 6.20312 9.4375 7.375C9.4375 8.58594 8.42188 9.5625 7.25 9.5625C6.03906 9.5625 5.0625 8.58594 5.0625 7.375C5.0625 6.20312 6.03906 5.1875 7.25 5.1875ZM7.25 8.3125C7.75781 8.3125 8.1875 7.92188 8.1875 7.375C8.1875 6.86719 7.75781 6.4375 7.25 6.4375C6.70312 6.4375 6.3125 6.86719 6.3125 7.375C6.3125 7.92188 6.70312 8.3125 7.25 8.3125ZM25.4922 12.9609C25.6094 13.3906 25.6484 13.8203 25.6484 14.25C25.6484 14.7188 25.6094 15.1484 25.4922 15.5781C25.4141 16.0469 24.9844 16.3594 24.5156 16.3594H23.7344C23.6172 16.6719 23.4609 16.9844 23.2656 17.2578L23.6562 17.9219C23.7344 18.0781 23.7734 18.2344 23.7734 18.4297C23.7734 18.7031 23.6562 18.9766 23.4609 19.1719C22.7969 19.7578 22.0156 20.1875 21.1562 20.4609C21.0781 20.5 20.9609 20.5 20.8438 20.5C20.5312 20.5 20.1797 20.3438 19.9844 20.0312L19.6328 19.3672C19.2812 19.4062 18.9297 19.4062 18.5781 19.3672L18.2266 20.0312C17.9922 20.4219 17.4844 20.6172 17.0547 20.4609C16.1953 20.1875 15.4141 19.7578 14.75 19.1719C14.5547 18.9766 14.4375 18.7031 14.4375 18.4297C14.4375 18.2344 14.4766 18.0781 14.5547 17.9219L14.9453 17.2578C14.75 16.9844 14.5938 16.6719 14.4375 16.3594H13.6953C13.2266 16.3594 12.7969 16.0469 12.7188 15.5781C12.6016 15.1484 12.5625 14.7188 12.5625 14.25C12.5625 13.8203 12.6016 13.3906 12.7188 12.9609C12.7969 12.4922 13.2266 12.1797 13.6953 12.1797H14.4375C14.5938 11.8672 14.75 11.5547 14.9453 11.2812L14.5547 10.6172C14.4766 10.4609 14.4375 10.3047 14.4375 10.1094C14.4375 9.83594 14.5547 9.5625 14.75 9.36719C15.4531 8.78125 16.1953 8.35156 17.0547 8.07812C17.4844 7.92188 17.9922 8.11719 18.2266 8.50781L18.5781 9.17188C18.9297 9.13281 19.2812 9.13281 19.6328 9.17188L19.9844 8.50781C20.2188 8.11719 20.7266 7.92188 21.1562 8.07812C22.0156 8.35156 22.7969 8.78125 23.4609 9.36719C23.6562 9.5625 23.7734 9.83594 23.7734 10.1094C23.7734 10.3047 23.7344 10.4609 23.6562 10.6172L23.2656 11.2812C23.4609 11.5547 23.6172 11.8672 23.7344 12.1797H24.5156C24.9844 12.1797 25.4141 12.4922 25.4922 12.9609ZM24.3203 15.1094C24.3594 14.8359 24.3984 14.5625 24.3984 14.25C24.3984 13.9766 24.3594 13.7031 24.3203 13.4297H22.875L22.7578 13C22.5625 12.5312 22.3281 12.1406 22.0156 11.75L21.7422 11.4375L22.4453 10.1875C22.0156 9.79688 21.5078 9.52344 20.9609 9.32812L20.2578 10.5391L19.8281 10.4609C19.3594 10.3828 18.8516 10.3828 18.3828 10.4609L17.9531 10.5391L17.25 9.32812C16.7031 9.52344 16.1953 9.79688 15.7656 10.1875L16.4688 11.3984L16.1953 11.75C15.8438 12.1016 15.6094 12.5312 15.4531 13L15.2969 13.4297H13.8906C13.8516 13.7031 13.8125 13.9766 13.8125 14.25C13.8125 14.5625 13.8516 14.8359 13.8906 15.1094H15.2969L15.4531 15.5391C15.6094 16.0078 15.8438 16.4375 16.1953 16.7891L16.4688 17.1406L15.7656 18.3516C16.1953 18.7422 16.7031 19.0156 17.25 19.2109L17.9531 18L18.3828 18.0781C18.8516 18.1562 19.3594 18.1562 19.8281 18.0781L20.2578 18L20.9609 19.2109C21.5078 19.0156 22.0156 18.7422 22.4453 18.3516L21.7422 17.1016L22.0156 16.7891C22.3281 16.3984 22.5625 16.0078 22.7578 15.5391L22.875 15.1094H24.3203ZM12.9922 8.27344C13.3828 8.50781 13.5781 9.01562 13.4219 9.44531C13.1484 10.3047 12.7188 11.0859 12.1328 11.75C11.8203 12.0625 11.2734 12.1406 10.8828 11.9453L10.2188 11.5547C9.94531 11.75 9.63281 11.9062 9.32031 12.0625V12.8047C9.32031 13.2734 9.00781 13.7031 8.53906 13.7812C8.10938 13.8984 7.67969 13.9375 7.25 13.9375C6.78125 13.9375 6.35156 13.8984 5.92188 13.7812C5.45312 13.7031 5.14062 13.2734 5.14062 12.8047V12.0625C4.82812 11.9062 4.51562 11.75 4.24219 11.5547L3.57812 11.9453C3.1875 12.1406 2.64062 12.0625 2.32812 11.7109C1.74219 11.0859 1.3125 10.3047 1.03906 9.44531C0.882812 9.01562 1.07812 8.50781 1.46875 8.27344L2.13281 7.92188C2.13281 7.72656 2.09375 7.57031 2.09375 7.41406C2.09375 7.21875 2.13281 7.0625 2.13281 6.86719L1.46875 6.51562C1.07812 6.28125 0.882812 5.77344 1.03906 5.34375C1.3125 4.48438 1.74219 3.70312 2.32812 3.03906C2.64062 2.72656 3.1875 2.64844 3.57812 2.84375L4.24219 3.23438C4.51562 3.03906 4.82812 2.88281 5.14062 2.76562V1.98438C5.14062 1.51562 5.45312 1.08594 5.92188 1.00781C6.78125 0.8125 7.67969 0.8125 8.53906 1.00781C9.00781 1.08594 9.32031 1.51562 9.32031 1.98438V2.76562C9.63281 2.88281 9.94531 3.03906 10.2188 3.23438L10.8828 2.84375C11.2734 2.64844 11.8203 2.72656 12.1328 3.03906C12.7188 3.70312 13.1484 4.48438 13.4219 5.34375C13.5781 5.77344 13.3828 6.28125 12.9922 6.51562L12.3281 6.86719C12.3281 7.0625 12.3672 7.21875 12.3672 7.41406C12.3672 7.57031 12.3281 7.72656 12.3281 7.92188L12.9922 8.27344ZM11.0391 6.67188L10.9609 6.24219L12.1719 5.53906C11.9766 4.99219 11.7031 4.48438 11.3125 4.05469L10.0625 4.75781L9.75 4.48438C9.35938 4.17188 8.96875 3.9375 8.5 3.74219L8.07031 3.625V2.17969C7.52344 2.0625 6.9375 2.0625 6.39062 2.17969V3.625L5.96094 3.74219C5.49219 3.9375 5.10156 4.17188 4.71094 4.48438L4.39844 4.75781L3.14844 4.05469C2.75781 4.48438 2.48438 4.99219 2.28906 5.53906L3.5 6.24219L3.42188 6.67188C3.38281 6.90625 3.34375 7.14062 3.34375 7.41406C3.34375 7.64844 3.38281 7.88281 3.42188 8.11719L3.5 8.54688L2.28906 9.25C2.48438 9.79688 2.75781 10.3047 3.14844 10.7344L4.35938 10.0312L4.71094 10.3047C5.0625 10.6562 5.49219 10.8906 5.96094 11.0469L6.39062 11.2031V12.6094C6.9375 12.7266 7.52344 12.7266 8.07031 12.6094V11.2031L8.5 11.0469C8.96875 10.8906 9.39844 10.6562 9.75 10.3047L10.1016 10.0312L11.3125 10.7344C11.7031 10.3047 11.9766 9.79688 12.1719 9.25L10.9609 8.54688L11.0391 8.11719C11.0781 7.88281 11.1172 7.64844 11.1172 7.41406C11.1172 7.14062 11.0781 6.90625 11.0391 6.67188ZM19.125 12.0625C20.2969 12.0625 21.3125 13.0781 21.3125 14.25C21.3125 15.4609 20.2969 16.4375 19.125 16.4375C17.9141 16.4375 16.9375 15.4609 16.9375 14.25C16.9375 13.0781 17.9141 12.0625 19.125 12.0625ZM19.125 15.1875C19.6328 15.1875 20.0625 14.7969 20.0625 14.25C20.0625 13.7422 19.6328 13.3125 19.125 13.3125C18.5781 13.3125 18.1875 13.7422 18.1875 14.25C18.1875 14.7969 18.5781 15.1875 19.125 15.1875Z" fill="white"/>
</svg>
