<svg width="246" height="299" viewBox="0 0 246 299" fill="none" xmlns="http://www.w3.org/2000/svg">
<path d="M98.2932 203.558L91.3624 203.558L58.598 203.558L58.598 223.555L58.598 245.882C58.598 268.078 76.6071 286.122 98.759 286.122L114.24 286.122L245.038 286.122C244.716 290.254 244.83 294.405 244.943 298.537L114.184 298.537L98.759 298.537C69.7591 298.556 46.1884 274.92 46.1884 245.882L46.1884 223.555L46.1884 203.558L38.8107 203.558C28.028 203.558 19.2505 194.763 19.2505 183.959C19.2505 173.155 28.028 164.361 38.8107 164.361L39.0188 164.361C49.8016 164.361 58.5791 173.155 58.5791 183.959L58.5791 191.143L91.3435 191.143L98.2743 191.143C109.208 191.143 118.099 182.235 118.099 171.279C118.099 160.324 109.208 151.415 98.2743 151.415L81.3435 151.415L39.7827 151.358C17.8577 151.32 -1.4436e-05 133.409 -1.63565e-05 111.441L-2.86832e-05 -47.9999L12.3907 -47.9999L12.3907 111.441C12.3907 126.585 24.6868 138.924 39.8016 138.943L81.3624 139L98.2932 139C116.056 139 130.509 153.481 130.509 171.279C130.509 189.077 116.056 203.558 98.2932 203.558ZM46.1884 183.959C46.1884 179.998 42.9725 176.776 39.0188 176.776L38.8107 176.776C34.8571 176.776 31.6412 179.998 31.6412 183.959C31.6412 187.921 34.8571 191.143 38.8107 191.143L46.1884 191.143L46.1884 183.959Z" fill="#00F1C7"/>
</svg>
