<svg width="747" height="335" viewBox="0 0 747 335" fill="none" xmlns="http://www.w3.org/2000/svg">
<path fill-rule="evenodd" clip-rule="evenodd" d="M698.465 89.0003H607.999V77.7931H698.425V24.8177C698.425 11.6043 709.14 0.863281 722.322 0.863281C735.504 0.863279 746.22 11.6043 746.22 24.8177V53.3118C746.22 73.0104 730.228 89.0205 710.596 89.0205H709.605V94.793C709.605 135.947 709.687 117.863 709.687 117.863L709.606 297.157C709.606 309.893 703.694 320.135 694.131 327.288C685.053 334.078 678.499 334.893 660.982 334.893L56.5003 334.893L38.2861 334.868C18.728 334.834 0.509786 318.844 0.509784 299.112L0.509781 265.998H11.5629L11.5629 299.112C11.5629 312.715 25.017 323.669 38.5 323.686H61.0001H660.982C661.883 323.686 662.768 323.69 663.636 323.694C672.665 323.738 679.971 323.773 686.5 318.893L687.5 318.29C694.172 313.305 698.466 303.906 698.466 297.117L698.547 117.843C698.547 117.843 698.465 136.648 698.465 94.7727V89.0003ZM709.605 24.8177C709.605 17.7854 715.307 12.0704 722.322 12.0704C729.338 12.0704 735.039 17.7854 735.039 24.8177V53.3118C735.039 66.809 724.081 77.8134 710.596 77.8134H709.605V24.8177Z" fill="#00F1C7"/>
</svg>
